<svg height="512pt" viewBox="0 0 512 512" width="512pt" xmlns="http://www.w3.org/2000/svg"><path d="m192.691406 382.664062-21.1875-21.191406 18.691406-18.691406c34.097657 29.25 78.375 46.953125 126.71875 46.953125 107.449219 0 194.867188-87.417969 194.867188-194.867187 0-107.449219-87.417969-194.867188-194.867188-194.867188-107.449218 0-194.867187 87.417969-194.867187 194.867188 0 48.339843 17.699219 92.621093 46.953125 126.714843l-18.691406 18.691407-21.210938-21.207032-129.097656 129.335938 63.59375 63.597656zm109.230469-23.597656v-15.933594c0-21.21875-14.851563-38.953124-36.957031-44.132812-13.328125-3.121094-23-15.394531-23-29.183594 0-16.53125 13.449218-29.980468 29.980468-29.980468 12.546876 0 23.835938 8.042968 28.089844 20.011718l3.546875 9.96875h26.664063l3.542968-9.96875c4.253907-11.96875 15.542969-20.011718 28.09375-20.011718 16.53125 0 29.980469 13.449218 29.980469 29.980468 0 13.804688-9.683593 26.085938-23.019531 29.199219-22.09375 5.15625-36.941406 22.890625-36.941406 44.125v15.925781c-4.9375.449219-9.933594.6875-14.988282.6875-5.054687 0-10.050781-.242187-14.992187-.6875zm29.980469-328.398437v15.925781c0 21.234375 14.84375 38.964844 36.941406 44.125 13.339844 3.113281 23.019531 15.394531 23.019531 29.199219 0 16.53125-13.449219 29.980469-29.980469 29.980469-12.550781 0-23.839843-8.042969-28.09375-20.011719l-3.542968-9.96875h-26.667969l-3.542969 9.96875c-4.253906 11.96875-15.542968 20.011719-28.089844 20.011719-16.53125 0-29.980468-13.449219-29.980468-29.980469 0-13.789063 9.671875-26.0625 23-29.183594 22.105468-5.179687 36.957031-22.914063 36.957031-44.136719v-15.929687c4.941406-.449219 9.9375-.6875 14.992187-.6875 5.054688 0 10.050782.238281 14.988282.6875zm-59.957032 5.546875v10.386718c0 8.085938-6.941406 13.332032-13.816406 14.945313-26.738281 6.261719-46.144531 30.808594-46.144531 58.371094 0 33.0625 26.898437 59.960937 59.960937 59.960937 17.527344 0 33.816407-7.765625 44.96875-20.53125 11.152344 12.765625 27.441407 20.53125 44.96875 20.53125 33.0625 0 59.957032-26.898437 59.957032-59.960937 0-27.585938-19.421875-52.144531-46.179688-58.394531-6.859375-1.597657-13.777344-6.835938-13.777344-14.929688v-10.378906c69.132813 19.621094 119.917969 83.316406 119.917969 158.652344 0 75.335937-50.785156 139.03125-119.917969 158.652343v-10.382812c0-8.089844 6.917969-13.328125 13.777344-14.929688 26.757813-6.246093 46.179688-30.804687 46.179688-58.390625 0-33.0625-26.894532-59.960937-59.957032-59.960937-17.527343 0-33.816406 7.765625-44.96875 20.53125-11.152343-12.765625-27.441406-20.53125-44.96875-20.53125-33.0625 0-59.960937 26.898437-59.960937 59.960937 0 27.558594 19.40625 52.109375 46.144531 58.375 6.875 1.609375 13.816406 6.855469 13.816406 14.941406v10.386719c-69.132812-19.621093-119.917968-83.316406-119.917968-158.652343 0-75.335938 50.78125-139.03125 119.917968-158.652344zm-229.566406 412.167968 86.738282-86.898437 21.199218 21.199219-86.738281 86.898437zm0 0"/></svg>