<?xml version="1.0" encoding="iso-8859-1"?>
<!-- Generator: Adobe Illustrator 19.0.0, SVG Export Plug-In . SVG Version: 6.00 Build 0)  -->
<svg version="1.1" id="Layer_1" xmlns="http://www.w3.org/2000/svg" xmlns:xlink="http://www.w3.org/1999/xlink" x="0px" y="0px"
	 viewBox="0 0 496 496" style="enable-background:new 0 0 496 496;" xml:space="preserve">
<g>
	<g>
		<g>
			<path d="M453.288,108.832l-13.232,8.992C466.184,156.304,480,201.32,480,248c0,127.92-104.072,232-232,232
				c-43.808,0-86.072-12.312-122.92-35.408l28.232-4.704l-2.632-15.784L92,433.888l28.84,57.688l14.312-7.16l-10.664-21.336
				C161.968,484.672,204.304,496,248,496c136.744,0,248-111.248,248-248C496,198.096,481.232,149.976,453.288,108.832z"/>
			<path d="M320,376v-48h64v-60.824c0-19.56-10.416-37.96-27.184-48.024l-5.52-3.312C361.592,205.68,368,191.584,368,176
				c0-30.88-25.12-56-56-56c-28.408,0-51.888,21.28-55.472,48.72c-2.784-0.432-5.624-0.72-8.528-0.72s-5.744,0.288-8.528,0.72
				C235.888,141.28,212.408,120,184,120c-30.88,0-56,25.12-56,56c0,15.584,6.408,29.68,16.712,39.84l-5.52,3.312
				C122.416,229.216,112,247.624,112,267.176V328h64v48H320z M304,360H192v-44.824c0-13.968,7.44-27.112,19.424-34.304l11.48-6.888
				C230.464,277.8,238.968,280,248,280s17.536-2.2,25.104-6.008l11.48,6.888C296.56,288.072,304,301.208,304,315.176V360z
				 M368,267.176V312h-48.208c-1.064-18.344-11.128-35.328-26.976-44.84l-5.52-3.312c8.672-8.552,14.536-19.912,16.184-32.592
				c2.824,0.44,5.664,0.744,8.52,0.744c9.032,0,17.536-2.2,25.104-6.008l11.472,6.88C360.56,240.064,368,253.208,368,267.176z
				 M312,136c22.056,0,40,17.944,40,40c0,22.056-17.944,40-40,40c-2.952,0-5.896-0.464-8.816-1.144
				c-3.016-18.224-14.824-33.48-30.944-41.264C273.512,152.68,290.768,136,312,136z M248,184c22.056,0,40,17.944,40,40
				c0,22.056-17.944,40-40,40c-22.056,0-40-17.944-40-40C208,201.944,225.944,184,248,184z M144,176c0-22.056,17.944-40,40-40
				c21.232,0,38.488,16.68,39.76,37.6c-16.12,7.784-27.928,23.032-30.944,41.264c-2.92,0.672-5.864,1.136-8.816,1.136
				C161.944,216,144,198.056,144,176z M128,312v-44.824c0-13.976,7.44-27.12,19.424-34.304l11.48-6.888
				C166.464,229.8,174.968,232,184,232c2.856,0,5.696-0.304,8.528-0.744c1.648,12.672,7.512,24.032,16.184,32.592l-5.52,3.312
				c-15.856,9.52-25.912,26.496-26.976,44.84H128z"/>
			<path d="M248,432c35.752,0,70.464-10.312,100.368-29.816l-8.744-13.408C312.328,406.584,280.64,416,248,416
				c-92.64,0-168-75.368-168-168c0-92.64,75.36-168,168-168s168,75.36,168,168c0,50.296-22.272,97.528-61.096,129.592l10.184,12.344
				C407.616,354.824,432,303.088,432,248c0-101.456-82.544-184-184-184S64,146.544,64,248C64,349.464,146.544,432,248,432z"/>
			<path d="M16,248C16,120.072,120.072,16,248,16c43.808,0,86.072,12.312,122.912,35.408l-28.232,4.704l2.632,15.784L404,62.112
				L375.16,4.424l-14.312,7.16l10.664,21.336C334.032,11.328,291.704,0,248,0C111.256,0,0,111.256,0,248
				c0,37.608,8.232,73.768,24.464,107.472l14.416-6.936C23.696,317.008,16,283.184,16,248z"/>
			<path d="M33.2,372.008c2.976,5.136,6.176,10.232,9.512,15.16l13.24-8.984c-3.128-4.608-6.12-9.384-8.904-14.184L33.2,372.008z"/>
		</g>
	</g>
</g>
<g>
</g>
<g>
</g>
<g>
</g>
<g>
</g>
<g>
</g>
<g>
</g>
<g>
</g>
<g>
</g>
<g>
</g>
<g>
</g>
<g>
</g>
<g>
</g>
<g>
</g>
<g>
</g>
<g>
</g>
</svg>
