<svg height="511pt" viewBox="-23 1 511 511.999" width="511pt" xmlns="http://www.w3.org/2000/svg"><path d="m287.242188 101.339844c0-17.933594-14.589844-32.527344-32.527344-32.527344h-25.011719c-4.152344 0-7.515625 3.367188-7.515625 7.515625v87.628906c0 4.152344 3.363281 7.515625 7.515625 7.515625s7.515625-3.363281 7.515625-7.515625v-30.085937h16.808594l34.148437 37.628906-20.8125 22.933594c-2.789062 3.070312-2.558593 7.824218.515625 10.613281 1.441406 1.308594 3.246094 1.953125 5.050782 1.953125 2.042968 0 4.082031-.832031 5.566406-2.464844l19.828125-21.851562 19.832031 21.851562c1.484375 1.632813 3.519531 2.464844 5.566406 2.464844 1.804688 0 3.613282-.644531 5.050782-1.953125 3.074218-2.789063 3.304687-7.542969.515624-10.613281l-20.8125-22.933594 20.972657-23.109375c2.789062-3.074219 2.558593-7.828125-.515625-10.617187-3.074219-2.789063-7.828125-2.558594-10.617188.515624l-19.992187 22.023438-27.753907-30.582031c9.9375-5.574219 16.671876-16.207031 16.671876-28.390625zm-32.527344 17.496094h-17.496094v-34.992188h17.496094c9.648437 0 17.496094 7.851562 17.496094 17.496094 0 9.648437-7.847657 17.496094-17.496094 17.496094zm0 0"/><path d="m457.441406 0h-361.300781c-4.148437 0-7.515625 3.367188-7.515625 7.515625v50.394531c0 4.152344 3.367188 7.515625 7.515625 7.515625 4.152344 0 7.515625-3.363281 7.515625-7.515625v-42.878906h346.273438v325.507812c0 4.152344 3.363281 7.515626 7.515624 7.515626 4.152344 0 7.515626-3.363282 7.515626-7.515626v-333.023437c0-4.148437-3.367188-7.515625-7.519532-7.515625zm0 0"/><path d="m457.441406 363.089844c-4.148437 0-7.515625 3.363281-7.515625 7.515625v80.683593c0 24.851563-19.40625 44.863282-44.21875 45.636719-1.558593-.046875-3.105469-.164062-4.636719-.359375-.003906 0-.007812 0-.007812 0-.730469-.09375-1.457031-.203125-2.179688-.328125-.078124-.015625-.15625-.03125-.234374-.042969-.644532-.117187-1.285157-.246093-1.925782-.386718-.171875-.039063-.339844-.078125-.511718-.117188-.539063-.128906-1.082032-.261718-1.617188-.40625-.28125-.078125-.566406-.160156-.84375-.242187-.421875-.121094-.839844-.246094-1.253906-.378907-.410156-.128906-.816406-.269531-1.21875-.410156-.285156-.101562-.574219-.199218-.855469-.304687-.539063-.203125-1.070313-.414063-1.597656-.632813-.152344-.0625-.300781-.121094-.453125-.183594-.652344-.28125-1.304688-.574218-1.945313-.882812-.023437-.011719-.050781-.023438-.078125-.035156-13.25-6.402344-23.132812-18.722656-26.199218-33.503906-.007813-.042969-.019532-.082032-.027344-.125-.136719-.675782-.257813-1.359376-.367188-2.046876-.019531-.117187-.042968-.230468-.058594-.347656-.09375-.625-.167968-1.25-.238281-1.882812-.023437-.175782-.046875-.347656-.066406-.527344-.0625-.605469-.101563-1.21875-.140625-1.832031-.011719-.195313-.03125-.386719-.042969-.582031-.039062-.800782-.058593-1.609376-.058593-2.421876 0-4.152343-3.363282-7.515624-7.515626-7.515624h-181.011718c-4.152344 0-7.515625 3.363281-7.515625 7.515624 0 4.152344 3.363281 7.515626 7.515625 7.515626h173.9375c.117187.996093.265625 1.980468.429687 2.964843.007813.058594.019531.117188.03125.175781.15625.925782.335938 1.84375.535157 2.757813.011718.058594.023437.117187.039062.175781 2.496094 11.398438 8.117188 21.90625 16.449219 30.441406 1.375 1.40625 2.804687 2.730469 4.28125 3.992188h-302.769531c-23.921876 0-43.816407-17.585938-47.433594-40.507812h124.433594c4.152343 0 7.515624-3.363282 7.515624-7.515626 0-4.152343-3.363281-7.515624-7.515624-7.515624h-36.898438v-353.453126c0-4.152343-3.363281-7.515624-7.515625-7.515624s-7.515625 3.363281-7.515625 7.515624v353.449219h-80.609375c-4.152344 0-7.515625 3.367188-7.515625 7.519531 0 34.765626 28.285156 63.054688 63.054688 63.054688h343.617187c.566406 0 1.121094-.070312 1.652344-.191406 14.765625-1.097656 28.484375-7.476563 38.894531-18.152344 11.117188-11.398438 17.242188-26.445312 17.242188-42.367188v-80.683593c0-4.152344-3.367188-7.515625-7.519532-7.515625zm0 0"/><path d="m140.554688 340.453125h265.429687c4.152344 0 7.515625-3.363281 7.515625-7.515625s-3.363281-7.515625-7.515625-7.515625h-265.429687c-4.148438 0-7.515626 3.363281-7.515626 7.515625s3.367188 7.515625 7.515626 7.515625zm0 0"/><path d="m140.554688 297.441406h265.429687c4.152344 0 7.515625-3.367187 7.515625-7.519531 0-4.148437-3.363281-7.515625-7.515625-7.515625h-265.429687c-4.148438 0-7.515626 3.367188-7.515626 7.515625 0 4.152344 3.367188 7.519531 7.515626 7.519531zm0 0"/><path d="m133.039062 246.910156c0 4.148438 3.367188 7.515625 7.515626 7.515625h265.429687c4.152344 0 7.515625-3.367187 7.515625-7.515625 0-4.152344-3.363281-7.519531-7.515625-7.519531h-265.429687c-4.148438 0-7.515626 3.367187-7.515626 7.519531zm0 0"/><path d="m140.554688 383.46875h158.816406c4.152344 0 7.515625-3.363281 7.515625-7.515625s-3.363281-7.515625-7.515625-7.515625h-158.816406c-4.148438 0-7.515626 3.363281-7.515626 7.515625s3.367188 7.515625 7.515626 7.515625zm0 0"/></svg>