<svg height="512" viewBox="0 0 60 60" width="512" xmlns="http://www.w3.org/2000/svg"><g id="Page-1" fill="none" fill-rule="evenodd"><g id="010---First-Aid-Manual" fill="rgb(0,0,0)" fill-rule="nonzero"><path id="Shape" d="m13.866 19.954c.611.554 1.259 1.142 1.941 1.777.3839772.3575758.9790228.3575758 1.363 0 .681-.634 1.329-1.222 1.938-1.775 3.548-3.22 5.892-5.347 5.892-8.572 0-3.019-2.089-5.384-4.756-5.384-1.4496366.00888154-2.8224894.65290884-3.756 1.762-.9335106-1.10909116-2.3063634-1.75311846-3.756-1.762-2.667 0-4.756 2.365-4.756 5.384 0 3.225 2.343 5.351 5.89 8.57zm-1.134-11.954c1.2308819.08548063 2.3201508.82771231 2.85 1.942.1641169.3548416.5199705.5815018.9109248.5802115s.7453041-.2302943.9070752-.5862115c.5309384-1.10975544 1.6168573-1.84897445 2.844-1.936 1.571 0 2.756 1.455 2.756 3.384 0 2.34-1.971 4.128-5.235 7.091-.41.371-.835.757-1.277 1.163-.442-.406-.868-.7943333-1.278-1.165-3.264-2.962-5.234-4.75-5.234-7.089 0-1.929 1.185-3.384 2.756-3.384z"/><path id="Shape" d="m3 52h18.68c.3855554-.0039889.7376935.2182494.9.568.9918801 2.0972902 3.1039887 3.4348053 5.424 3.4348053s4.4321199-1.3375151 5.424-3.4348053c.1632887-.3486217.5150513-.5698413.9-.566h.672c2.0287204 4.881419 6.8122181 8.0474613 12.0982712 8.007454 5.2860531-.0400074 10.0210814-3.2780903 11.9756838-8.189657 1.9546025-4.9115667.739201-10.517677-3.073955-14.178797v-26.641c0-1.65685425-1.3431458-3-3-3h-1v-5c0-1.65685425-1.3431458-3-3-3h-17c-1.5737865 0-3.0557281.74097079-4 2-.9442719-1.25902921-2.4262135-2-4-2h-17c-1.65685425 0-3 1.34314575-3 3v5h-1c-1.65685425 0-3 1.34314575-3 3v38c0 1.6568542 1.34314575 3 3 3zm55-5c0 6.0751322-4.9248678 11-11 11s-11-4.9248678-11-11 4.9248678-11 11-11c6.0721626.0071635 10.9928365 4.9278374 11 11zm-5-37c.5522847 0 1 .4477153 1 1v25.063c-.634229-.4122557-1.3034718-.7679582-2-1.063v-25zm-21-8h17c.5522847 0 1 .44771525 1 1v31.363c-3.352548-.8116104-6.8904088-.2501121-9.8269167 1.5596422-2.936508 1.8097543-5.0282389 4.7177434-5.8100833 8.0773578h-2.363c-1.0836184.0010566-2.1371632.3564524-3 1.012v-40.012c0-.79564947.3160705-1.55871121.8786797-2.12132034.5626091-.56260914 1.3256708-.87867966 2.1213203-.87867966zm-26 1c0-.55228475.44771525-1 1-1h17c1.6568542 0 3 1.34314575 3 3v40.012c-.8628368-.6555476-1.9163816-1.0109434-3-1.012h-17c-.55228475 0-1-.4477153-1-1zm-4 8c0-.5522847.44771525-1 1-1h1v33c0 1.6568542 1.34314575 3 3 3h17c1.6568542 0 3 1.3431458 3 3 0 .5522847.4477153 1 1 1s1-.4477153 1-1c0-1.6568542 1.3431458-3 3-3h2.051c-.026.331-.051.662-.051 1 .0036114 1.0107332.1254392 2.0175747.363 3h-.043c-1.1562415.0017112-2.2085877.6677432-2.705 1.712-.6617088 1.3970434-2.0691705 2.2877573-3.615 2.2877573s-2.9532912-.8907139-3.615-2.2877573c-.4964123-1.0442568-1.5487585-1.7102888-2.705-1.712h-18.68c-.55228475 0-1-.4477153-1-1z"/><circle id="Oval" cx="47" cy="41" r="1"/><path id="Shape" d="m49 51h-1v-6c0-.5522847-.4477153-1-1-1h-2c-.5522847 0-1 .4477153-1 1s.4477153 1 1 1h1v5h-1c-.5522847 0-1 .4477153-1 1s.4477153 1 1 1h4c.5522847 0 1-.4477153 1-1s-.4477153-1-1-1z"/><path id="Shape" d="m24 25h-15c-.55228475 0-1 .4477153-1 1s.44771525 1 1 1h15c.5522847 0 1-.4477153 1-1s-.4477153-1-1-1z"/><path id="Shape" d="m32 27h15c.5522847 0 1-.4477153 1-1s-.4477153-1-1-1h-15c-.5522847 0-1 .4477153-1 1s.4477153 1 1 1z"/><path id="Shape" d="m47 29h-2c-.5522847 0-1 .4477153-1 1s.4477153 1 1 1h2c.5522847 0 1-.4477153 1-1s-.4477153-1-1-1z"/><path id="Shape" d="m32 31h9c.5522847 0 1-.4477153 1-1s-.4477153-1-1-1h-9c-.5522847 0-1 .4477153-1 1s.4477153 1 1 1z"/><path id="Shape" d="m32 35h5c.5522847 0 1-.4477153 1-1s-.4477153-1-1-1h-5c-.5522847 0-1 .4477153-1 1s.4477153 1 1 1z"/><path id="Shape" d="m32 39h2c.5522847 0 1-.4477153 1-1s-.4477153-1-1-1h-2c-.5522847 0-1 .4477153-1 1s.4477153 1 1 1z"/><path id="Shape" d="m24 29h-2c-.5522847 0-1 .4477153-1 1s.4477153 1 1 1h2c.5522847 0 1-.4477153 1-1s-.4477153-1-1-1z"/><path id="Shape" d="m9 31h9c.5522847 0 1-.4477153 1-1s-.4477153-1-1-1h-9c-.55228475 0-1 .4477153-1 1s.44771525 1 1 1z"/><path id="Shape" d="m24 33h-9c-.5522847 0-1 .4477153-1 1s.4477153 1 1 1h9c.5522847 0 1-.4477153 1-1s-.4477153-1-1-1z"/><path id="Shape" d="m9 35h2c.5522847 0 1-.4477153 1-1s-.4477153-1-1-1h-2c-.55228475 0-1 .4477153-1 1s.44771525 1 1 1z"/><path id="Shape" d="m16 37h-7c-.55228475 0-1 .4477153-1 1s.44771525 1 1 1h7c.5522847 0 1-.4477153 1-1s-.4477153-1-1-1z"/><path id="Shape" d="m34 17h3v3c0 1.1045695.8954305 2 2 2h2c1.1045695 0 2-.8954305 2-2v-3h3c1.1045695 0 2-.8954305 2-2v-2c0-1.1045695-.8954305-2-2-2h-3v-3c0-1.1045695-.8954305-2-2-2h-2c-1.1045695 0-2 .8954305-2 2v3h-3c-1.1045695 0-2 .8954305-2 2v2c0 1.1045695.8954305 2 2 2zm0-4h4c.5522847 0 1-.4477153 1-1v-4h2v4c0 .5522847.4477153 1 1 1h4v2h-4c-.5522847 0-1 .4477153-1 1v4h-2v-4c0-.5522847-.4477153-1-1-1h-4z"/></g></g></svg>